<?xml version="1.0" encoding="UTF-8" standalone="no"?>
<svg
   width="500"
   height="500"
   viewBox="0 0 500 500"
   version="1.1"
   id="svg3"
   sodipodi:docname="star.svg.2023_12_27_13_28_26.1.svg"
   inkscape:export-filename="star-sm2.png"
   inkscape:export-xdpi="96.000252"
   inkscape:export-ydpi="96.000252"
   inkscape:version="1.3.2 (091e20e, 2023-11-25)"
   xmlns:inkscape="http://www.inkscape.org/namespaces/inkscape"
   xmlns:sodipodi="http://sodipodi.sourceforge.net/DTD/sodipodi-0.dtd"
   xmlns="http://www.w3.org/2000/svg"
   xmlns:svg="http://www.w3.org/2000/svg">
  <defs
     id="defs3" />
  <sodipodi:namedview
     id="namedview3"
     pagecolor="#ffffff"
     bordercolor="#000000"
     borderopacity="0.25"
     inkscape:showpageshadow="2"
     inkscape:pageopacity="0.0"
     inkscape:pagecheckerboard="true"
     inkscape:deskcolor="#d1d1d1"
     inkscape:zoom="1.2944769"
     inkscape:cx="54.462153"
     inkscape:cy="370.03364"
     inkscape:window-width="2400"
     inkscape:window-height="1350"
     inkscape:window-x="0"
     inkscape:window-y="0"
     inkscape:window-maximized="0"
     inkscape:current-layer="svg3" />
  <style
     id="style1">
    .animate-slow {
      animate: spin 180s linear infinite;
      transform-origin: 15px 15px;
    }

    .animate-slow-reverse {
      animate: spin-reverse 180s linear infinite;
    }


    @keyframes spin-reverse {
      0% {
        transform: rotate(0deg);
      }
      100% {
        transform: rotate(360deg);
      }
    }

        @keyframes spin {
      0% {
        transform: rotate(0deg);
      }
      100% {
        transform: rotate(-360deg);
      }
    }
  </style>
  <g
     class="star"
     id="g3"
     transform="matrix(22.999368,0,0,22.999368,-62.991689,-31.742304)"
     style="fill:#ffcc00">
    <g
       class="forward animate-slow"
       fill="currentColor"
       id="g1"
       style="fill:#ffcc00">
      <path
         d="m 15.252,10.689 c -0.987,-1.18 -1.48,-1.77 -2.048,-1.68 -0.567,0.091 -0.832,0.803 -1.362,2.227 l -0.138,0.368 c -0.15,0.405 -0.226,0.607 -0.373,0.756 -0.146,0.149 -0.348,0.228 -0.75,0.386 l -0.367,0.143 c -1.417,0.555 -2.126,0.833 -2.207,1.4 -0.08,0.567 0.52,1.049 1.721,2.011 l 0.31,0.25 c 0.342,0.273 0.513,0.41 0.611,0.597 0.1,0.187 0.115,0.404 0.146,0.837 l 0.029,0.394 c 0.11,1.523 0.166,2.285 0.683,2.545 0.517,0.26 1.154,-0.155 2.427,-0.983 l 0.329,-0.215 c 0.362,-0.235 0.543,-0.353 0.75,-0.387 0.208,-0.033 0.42,0.022 0.841,0.132 l 0.385,0.1 c 1.485,0.386 2.228,0.58 2.629,0.173 0.4,-0.407 0.193,-1.144 -0.221,-2.62 l -0.108,-0.38 c -0.117,-0.42 -0.176,-0.63 -0.147,-0.837 0.03,-0.208 0.145,-0.39 0.374,-0.756 l 0.21,-0.332 c 0.807,-1.285 1.21,-1.927 0.94,-2.438 -0.269,-0.511 -1.033,-0.553 -2.562,-0.635 l -0.396,-0.022 c -0.434,-0.023 -0.652,-0.035 -0.841,-0.13 -0.19,-0.095 -0.33,-0.263 -0.61,-0.599 z"
         id="path1"
         style="fill:#ffcc00;fill-opacity:1" />
    </g>
    <g
       class="reverse animate-slow-reverse"
       fill="currentColor"
       id="g2"
       transform="translate(1.6090406,1.5000371)"
       style="fill:#ffcc00">
      <path
         d="m 10.331,4.252 c 1.316,-1.574 1.974,-2.361 2.73,-2.24 0.756,0.121 1.11,1.07 1.817,2.969 l 0.183,0.491 c 0.201,0.54 0.302,0.81 0.497,1.008 0.196,0.199 0.464,0.304 1.001,0.514 l 0.489,0.192 c 1.89,0.74 2.835,1.11 2.942,1.866 0.108,0.757 -0.693,1.398 -2.294,2.682 l -0.414,0.332 c -0.455,0.365 -0.683,0.547 -0.815,0.797 -0.131,0.25 -0.152,0.538 -0.194,1.115 l -0.038,0.526 c -0.148,2.031 -0.222,3.047 -0.911,3.393 -0.69,0.347 -1.538,-0.206 -3.236,-1.311 L 11.649,16.3 c -0.482,-0.314 -0.723,-0.47 -1,-0.515 -0.277,-0.045 -0.558,0.028 -1.121,0.175 L 9.015,16.093 C 7.035,16.609 6.044,16.866 5.51,16.324 4.976,15.782 5.252,14.798 5.805,12.832 L 5.947,12.323 C 6.104,11.764 6.183,11.485 6.144,11.208 6.104,10.931 5.951,10.688 5.645,10.2 L 5.367,9.757 C 4.29,8.044 3.752,7.187 4.11,6.507 4.47,5.825 5.489,5.77 7.528,5.659 L 8.055,5.631 C 8.635,5.6 8.924,5.584 9.177,5.457 9.429,5.33 9.616,5.107 9.99,4.659 l 0.34,-0.407 z"
         opacity="0.5"
         id="path2"
         style="fill:#ffcc00" />
    </g>
  </g>
</svg>
