<?xml version="1.0" encoding="UTF-8" standalone="no"?>
<svg
   width="1em"
   height="1em"
   viewBox="0 0 512 512"
   version="1.1"
   id="svg1"
   sodipodi:docname="game-icons-winter-hat.svg"
   inkscape:version="1.3.2 (091e20e, 2023-11-25)"
   xmlns:inkscape="http://www.inkscape.org/namespaces/inkscape"
   xmlns:sodipodi="http://sodipodi.sourceforge.net/DTD/sodipodi-0.dtd"
   xmlns:xlink="http://www.w3.org/1999/xlink"
   xmlns="http://www.w3.org/2000/svg"
   xmlns:svg="http://www.w3.org/2000/svg">
  <defs
     id="defs1">
    <linearGradient
       id="linearGradient15"
       inkscape:collect="always">
      <stop
         style="stop-color:#00b706;stop-opacity:1;"
         offset="0"
         id="stop16" />
      <stop
         style="stop-color:#008e06;stop-opacity:1;"
         offset="1"
         id="stop17" />
    </linearGradient>
    <linearGradient
       id="linearGradient7"
       inkscape:collect="always">
      <stop
         style="stop-color:#ce5489;stop-opacity:1;"
         offset="0"
         id="stop7" />
      <stop
         style="stop-color:#ce5489;stop-opacity:0;"
         offset="1"
         id="stop8" />
    </linearGradient>
    <linearGradient
       inkscape:collect="always"
       xlink:href="#linearGradient7"
       id="linearGradient8"
       x1="26.448757"
       y1="254.84547"
       x2="487.5"
       y2="254.84547"
       gradientUnits="userSpaceOnUse" />
    <radialGradient
       inkscape:collect="always"
       xlink:href="#linearGradient15"
       id="radialGradient17"
       cx="256.97438"
       cy="254.84548"
       fx="256.97438"
       fy="254.84548"
       r="230.52562"
       gradientTransform="matrix(1,0,0,1.0198236,0,-5.0519646)"
       gradientUnits="userSpaceOnUse" />
  </defs>
  <sodipodi:namedview
     id="namedview1"
     pagecolor="#ffffff"
     bordercolor="#000000"
     borderopacity="0.25"
     inkscape:showpageshadow="2"
     inkscape:pageopacity="0.0"
     inkscape:pagecheckerboard="0"
     inkscape:deskcolor="#d1d1d1"
     inkscape:zoom="1.3398438"
     inkscape:cx="255.62682"
     inkscape:cy="256.37318"
     inkscape:window-width="1584"
     inkscape:window-height="797"
     inkscape:window-x="15"
     inkscape:window-y="881"
     inkscape:window-maximized="0"
     inkscape:current-layer="svg1" />
  <path
     fill="currentColor"
     d="M432 20.25c-30.5 0-55 24.52-55 55c0 30.45 24.5 54.95 55 54.95s55-24.5 55-54.95c0-30.48-24.5-55-55-55zM362.8 98.5c-51.5 28.9-108 60.6-158.1 94.9c-63.1 43.2-114.49 90.7-132.73 139.4C189.3 360.6 308.8 394.7 453.8 394c9.2-83.5 18.1-171.1-.5-249a71.8 71.8 0 0 1-21.3 3.2c-32.1 0-59.4-20.8-69.2-49.7zM52 346.7c-19.24 28.5-25.15 57.6-25.05 85.3c9.72 3.3 20.13 6.5 31.06 9.6c1.19-13.4 5.49-31 13.2-55.1l17.14 5.4c-8.24 25.7-12 43.9-12.6 54.5c12.47 3.2 25.55 6.3 38.95 9.2c3.2-18.5 9-35.9 14.8-53l17 5.8c-5.9 17.1-11.4 34-14.1 50.9c14.9 2.9 30.2 5.7 45.7 8.3l9.5-51.7l17.8 3.2l-9.4 51.4c16.1 2.5 32.4 4.7 48.7 6.8l7.3-49.8l17.8 2.6l-7.3 49.3c17.8 2 35.5 3.8 52.9 5.2l5.9-47.4l17.8 2.2l-5.8 46.6c19.6 1.4 38.7 2.4 56.8 2.9c3.7-15.4 4.4-27.9 5.4-44.6l18 1.2c-1 15.3-1.7 28.5-5.1 43.8c15.5.3 30.2.1 43.7-.4c15-24.1 23.4-53.4 20.7-77.3c-163.2 4-294.2-35.6-420.8-64.9z"
     id="path1"
     style="fill:url(#radialGradient17);fill-opacity:1;stroke:url(#linearGradient8);stroke-opacity:1;opacity:1;fill-rule:nonzero" />
</svg>
