<?xml version="1.0" encoding="UTF-8" standalone="no"?>
<svg
  width="245.32419in"
  height="45.568359in"
  viewBox="0 0 245.32419 45.568359"
  version="1.1"
  xmlns="http://www.w3.org/2000/svg"
  xmlns:svg="http://www.w3.org/2000/svg"
>
  <g id="layer1">
    <path
      id="path"
      d="M 1.35352,0 C 0.45074,0 0,0.75521 0,2.26562 v 30.13086 c 0.0347,0.95487 0.23503,2.11676 0.59961,3.48829 0.36459,1.35415 1.17188,2.83854 2.42187,4.45312 1.267356,1.61458 2.733726,2.8125 4.400386,3.59375 1.68403,0.76389 5.34789,1.14648 10.99024,1.14648 1.30208,0 1.95312,-0.58094 1.95312,-1.74414 v -5.33984 c 0,-1.09374 -0.34852,-1.70073 -1.04296,-1.82227 -3.73263,-0.10416 -6.10243,-0.22634 -7.10938,-0.36523 -1.00695,-0.15625 -1.77821,-0.58897 -2.31641,-1.30078 -0.5382,-0.72917 -0.83465,-1.78082 -0.88671,-3.15234 v -11.2754 h 9.01171 c 1.51042,0 2.26563,-0.45074 2.26563,-1.35351 v -6.25 c 0,-0.9375 -0.60895,-1.40625 -1.82422,-1.40625 H 9.009766 V 1.82227 C 9.009766,0.60699 8.541006,0 7.603516,0 Z m 171.45507,0 c -0.90277,0 -1.35547,0.75521 -1.35547,2.26562 v 30.13086 c 0.0347,0.95487 0.23503,2.11676 0.59961,3.48829 0.36458,1.35415 1.17188,2.83854 2.42188,4.45312 1.26736,1.61458 2.73373,2.8125 4.40039,3.59375 1.68402,0.76389 5.34788,1.14648 10.99023,1.14648 1.30208,0 1.95313,-0.58094 1.95313,-1.74414 v -5.33984 c 0,-1.09374 -0.34657,-1.70073 -1.04102,-1.82227 -3.73263,-0.10416 -6.10243,-0.22634 -7.10937,-0.36523 -1.00694,-0.15625 -1.78017,-0.58897 -2.31836,-1.30078 -0.53821,-0.72917 -0.8327,-1.78082 -0.88477,-3.15234 v -11.2754 h 9.00977 c 1.51041,0 2.26562,-0.45074 2.26562,-1.35351 v -6.25 c 0,-0.9375 -0.60699,-1.40625 -1.82226,-1.40625 h -9.45313 V 1.82227 C 180.46484,0.60699 179.99609,0 179.05859,0 Z m -64.52148,1.54687 v 43.53125 h 9.15234 v -8.0371 l 4.39844,-4.3418 9.97461,12.3789 h 11.08789 l -1.91602,-2.43359 c 1.40011,0.74847 3.12472,1.39699 5.18165,1.94336 2.61688,0.65423 5.29365,0.98047 8.0332,0.98047 3.23022,0 6.01113,-0.42844 8.3418,-1.28711 2.37155,-0.89956 4.17177,-2.14752 5.39843,-3.74219 1.22667,-1.59466 1.83985,-3.41454 1.83985,-5.45898 0,-2.41244 -0.63479,-4.29325 -1.90235,-5.64258 -1.26755,-1.34933 -2.75923,-2.2691 -4.47656,-2.75977 -1.71733,-0.53155 -3.92634,-1.02092 -6.625,-1.4707 -2.41244,-0.368 -4.16944,-0.75713 -5.27344,-1.16601 -1.104,-0.4089 -1.65625,-1.12427 -1.65625,-2.14649 0,-0.89955 0.51099,-1.63654 1.53321,-2.20898 1.02222,-0.57244 2.55516,-0.85743 4.59961,-0.85743 3.43466,0 6.6047,0.81758 9.50781,2.45313 l 3.18945,-6.80859 c -1.51288,-0.89956 -3.43496,-1.59528 -5.76562,-2.08594 -2.28977,-0.53155 -4.60098,-0.79688 -6.93164,-0.79688 -3.14845,0 -5.8881,0.45006 -8.21875,1.34961 -2.28978,0.89956 -4.04678,2.16719 -5.27344,3.80274 -1.18577,1.59466 -1.7793,3.4342 -1.7793,5.51953 0,2.49422 0.63284,4.41629 1.90039,5.76562 1.30844,1.34934 2.84334,2.29072 4.60156,2.82227 1.75822,0.53156 3.98493,1.00127 6.6836,1.41016 2.28977,0.28622 3.9878,0.63408 5.09179,1.04296 1.104,0.4089 1.65625,1.083 1.65625,2.02344 0,2.00356 -2.02426,3.00586 -6.07226,3.00586 -2.00355,0 -4.04748,-0.28693 -6.13281,-0.85937 -2.08533,-0.61334 -3.86394,-1.38964 -5.33594,-2.33008 l -2.97461,6.4082 -11.53906,-14.66016 13.14062,-13.375 h -10.91211 l -13.375,12.67188 V 1.54687 Z m -71.652344,9.52149 c -3.69791,0 -7.10938,1.25803 -10.23438,3.77539 -3.125,2.51736 -4.6875,6.33746 -4.6875,11.45898 v 17.26563 c 0,0.19097 0.0261,0.36328 0.0781,0.51953 0.34722,0.65972 0.7819,0.99023 1.30273,0.99023 h 6.14648 c 1.04167,0 1.5625,-0.73719 1.5625,-2.21289 V 26.35352 c 0.13889,-0.95486 0.29514,-1.76216 0.46875,-2.42188 1.11112,-2.56944 3.07228,-3.85352 5.88477,-3.85352 h 2.03125 c 1.21528,0 1.82227,-0.46875 1.82227,-1.40625 v -6.25 c 0,-0.90277 -0.75521,-1.35351 -2.26563,-1.35351 z m 59.09179,0 c -2.93401,0 -5.3138,0.37261 -7.13672,1.11914 -1.16319,0.45139 -2.38715,1.12848 -3.67187,2.03125 -1.77083,1.52778 -2.9247,2.78581 -3.46289,3.77539 -0.83333,1.37153 -1.4323,2.73568 -1.79688,4.08984 -0.36458,1.35417 -0.54687,3.54167 -0.54687,6.5625 0,4.70485 1.25803,8.61915 3.77539,11.74414 2.51736,3.125 6.33746,4.6875 11.45898,4.6875 h 9.453134 c 0.19096,0 0.36523,-0.026 0.52148,-0.0781 0.65972,-0.34722 0.98828,-0.7819 0.98828,-1.30273 v -6.14454 c 0,-1.04166 -0.7372,-1.5625 -2.21289,-1.5625 h -7.318364 c -5.22568,0 -7.83789,-2.62218 -7.83789,-7.86523 0,-5.31249 2.51802,-7.96875 7.55274,-7.96875 h 8.175784 c 1.09374,-0.10417 1.64062,-0.59896 1.64062,-1.48438 v -6.30273 c -0.29514,-0.86805 -0.81597,-1.30078 -1.5625,-1.30078 z m 113.248054,0 c -1.73611,0.0868 -3.22049,0.28516 -4.45313,0.59766 -1.47569,0.38194 -2.89995,0.99088 -4.27148,1.82421 -0.98959,0.5382 -2.24762,1.70009 -3.77539,3.48829 -0.90278,1.28471 -1.57986,2.50065 -2.03125,3.64648 -0.74653,1.84027 -1.11914,4.22809 -1.11914,7.16211 v 0.57226 c 0,2.93403 0.37261,5.31186 1.11914,7.13477 0.45139,1.16319 1.12847,2.38716 2.03125,3.67188 1.52777,1.77083 2.7858,2.92665 3.77539,3.46484 1.37153,0.83333 2.79579,1.44032 4.27148,1.82226 1.23264,0.3125 2.71702,0.51281 4.45313,0.59961 0.0695,0 0.21767,-0.044 0.44336,-0.13086 v 0.0527 c 2.01388,0 3.98308,-0.59896 5.91015,-1.79688 0,1.26736 0.46876,1.90039 1.40625,1.90039 h 6.25 c 0.90278,0 1.35547,-0.75521 1.35547,-2.26562 V 26.17183 c -0.0694,-5.03471 -2.14475,-9.10526 -6.22461,-12.21289 -2.79513,-1.87499 -5.69379,-2.8125 -8.69726,-2.8125 v 0.0508 c -0.22569,-0.0868 -0.37391,-0.12891 -0.44336,-0.12891 z m 31.97461,0 c -3.69792,0 -7.10939,1.25803 -10.23438,3.77539 -3.12499,2.51736 -4.6875,6.33746 -4.6875,11.45898 v 17.26563 c 0,0.19097 0.0261,0.36328 0.0781,0.51953 0.34723,0.65972 0.77995,0.99023 1.30078,0.99023 h 6.14648 c 1.04167,0 1.5625,-0.73719 1.5625,-2.21289 V 26.35352 c 0.13889,-0.95486 0.29515,-1.76216 0.46875,-2.42188 1.11112,-2.56944 3.07227,-3.85352 5.88477,-3.85352 h 2.03125 c 1.21527,0 1.82422,-0.46875 1.82422,-1.40625 v -6.25 c 0,-0.90277 -0.75521,-1.35351 -2.26563,-1.35351 z M 61.126946,11.58984 c -3.35288,0 -6.37946,0.737 -9.07812,2.20899 -2.65777,1.43111 -4.76263,3.45343 -6.31641,6.07031 -1.51288,2.576 -2.26953,5.48072 -2.26953,8.71094 0,3.2711 0.77631,6.19353 2.33008,8.76953 1.55378,2.576 3.76278,4.60027 6.625,6.07226 2.86222,1.43112 6.15216,2.14649 9.87305,2.14649 5.96976,0 10.50963,-1.77861 13.61718,-5.33594 l -5.09179,-5.51953 c -1.14489,1.104 -2.39091,1.92157 -3.74024,2.45313 -1.30844,0.49066 -2.82174,0.73632 -4.53906,0.73632 -2.16711,0 -4.00665,-0.40879 -5.51953,-1.22656 -1.472,-0.81778 -2.55489,-2.04413 -3.25,-3.67969 l 24.41015,-4.72265 c 0,-3.43466 -0.77825,-6.40032 -2.33203,-8.89453 -1.51288,-2.53511 -3.55681,-4.45718 -6.13281,-5.76563 -2.576,-1.34932 -5.4375,-2.02344 -8.58594,-2.02344 z m 0,7.23828 c 1.96267,1e-5 3.63908,0.51099 5.0293,1.53321 1.39022,1.02222 2.30999,2.39204 2.75977,4.10937 l -16.07032,3.12696 c 0.0818,-2.73955 0.8797,-4.88568 2.39258,-6.43946 1.51289,-1.55377 3.47623,-2.33008 5.88867,-2.33008 z m 147.769534,0.88477 c 2.81249,0 4.77366,1.29406 5.88477,3.88086 0.17361,0.64236 0.32986,1.44966 0.46875,2.42187 v 4.11524 c -0.13889,0.95486 -0.29514,1.76216 -0.46875,2.42187 -1.11111,2.56945 -3.07228,3.85352 -5.88477,3.85352 -0.76389,0 -1.28472,-0.044 -1.5625,-0.13086 -3.28124,-0.79861 -4.92187,-3.19445 -4.92187,-7.1875 v -2.03125 c 0,-3.99305 1.64063,-6.39692 4.92187,-7.21289 0.27778,-0.0868 0.79861,-0.13086 1.5625,-0.13086 z"
    />
  </g>
</svg>