<?xml version="1.0" encoding="UTF-8" standalone="no"?>
<!-- Created with Inkscape (http://www.inkscape.org/) -->

<svg
   width="201.10358"
   height="45.302734"
   viewBox="0 0 201.10358 45.302735"
   version="1.1"
   id="svg1"
   inkscape:export-filename="treckstar-green.svg"
   inkscape:export-xdpi="96"
   inkscape:export-ydpi="96"
   inkscape:version="1.3.2 (091e20e, 2023-11-25)"
   sodipodi:docname="treckstar-overlapped-clip-labels.svg"
   xmlns:inkscape="http://www.inkscape.org/namespaces/inkscape"
   xmlns:sodipodi="http://sodipodi.sourceforge.net/DTD/sodipodi-0.dtd"
   xmlns:xlink="http://www.w3.org/1999/xlink"
   xmlns="http://www.w3.org/2000/svg"
   xmlns:svg="http://www.w3.org/2000/svg">
  <sodipodi:namedview
     id="namedview1"
     pagecolor="#ffffff"
     bordercolor="#000000"
     borderopacity="0.25"
     inkscape:zoom="1"
     inkscape:cx="-38.5"
     inkscape:cy="-413"
     inkscape:window-width="1600"
     inkscape:window-height="1692"
     inkscape:window-x="1600"
     inkscape:window-y="0"
     inkscape:window-maximized="0"
     inkscape:current-layer="svg1"
     inkscape:pagecheckerboard="true"
     inkscape:showpageshadow="2"
     inkscape:pageopacity="0.0"
     inkscape:deskcolor="#d1d1d1" />
  <defs
     id="defs1">
    <linearGradient
       id="linearGradient62"
       inkscape:collect="always">
      <stop
         style="stop-color:#007d00;stop-opacity:1;"
         offset="0.29840547"
         id="stop62" />
      <stop
         style="stop-color:#008000;stop-opacity:1;"
         offset="0.78428245"
         id="stop63" />
    </linearGradient>
    <inkscape:path-effect
       effect="fillet_chamfer"
       id="path-effect14"
       is_visible="true"
       lpeversion="1"
       nodesatellites_param="F,0,0,1,0,0,0,1 @ F,0,0,1,0,0,0,1 @ F,0,0,1,0,0,0,1 @ F,0,0,1,0,0.86229716,0,1 @ F,0,0,1,0,0,0,1 @ F,0,0,1,0,1.5400058,0,1 @ F,0,1,1,0,1.5400058,0,1 @ F,0,0,1,0,0,0,1 @ F,0,0,1,0,0,0,1 @ F,0,0,1,0,0,0,1 @ F,0,0,1,0,0,0,1 @ F,0,0,1,0,0,0,1 @ F,0,0,1,0,0,0,1 @ F,0,0,1,0,0,0,1 @ F,0,0,1,0,0,0,1 @ F,0,0,1,0,0,0,1 @ F,0,0,1,0,0,0,1 @ F,0,0,1,0,0,0,1"
       radius="0"
       unit="px"
       method="auto"
       mode="F"
       chamfer_steps="1"
       flexible="false"
       use_knot_distance="true"
       apply_no_radius="true"
       apply_with_radius="true"
       only_selected="false"
       hide_knots="false" />
    <inkscape:path-effect
       effect="fillet_chamfer"
       id="path-effect13"
       is_visible="true"
       lpeversion="1"
       nodesatellites_param="F,0,0,1,0,0,0,1 @ F,0,0,1,0,0,0,1 @ F,0,0,1,0,0,0,1 @ F,0,0,1,0,0,0,1 @ F,0,0,1,0,0,0,1 @ F,0,0,1,0,0,0,1 @ F,0,0,1,0,0,0,1 @ F,0,0,1,0,0,0,1 @ F,0,0,1,0,0,0,1 @ F,0,0,1,0,0,0,1 @ F,0,0,1,0,1.1837949,0,1 @ F,0,0,1,0,0,0,1 @ F,0,0,1,0,0,0,1 @ F,0,0,1,0,0,0,1 @ F,0,0,1,0,0,0,1 @ F,0,0,1,0,0,0,1 @ F,0,0,1,0,0,0,1 @ F,0,0,1,0,0,0,1 @ F,0,0,1,0,0,0,1 @ F,0,0,1,0,0,0,1 @ F,0,0,1,0,0,0,1 @ F,0,0,1,0,0,0,1 @ F,0,0,1,0,0,0,1 @ F,0,0,1,0,0,0,1 @ F,0,0,1,0,0,0,1 @ F,0,0,1,0,0,0,1 @ F,0,0,1,0,0,0,1 @ F,0,0,1,0,0,0,1 @ F,0,0,1,0,0,0,1 @ F,0,0,1,0,0,0,1 @ F,0,0,1,0,0,0,1 @ F,0,0,1,0,0,0,1 @ F,0,0,1,0,0,0,1 @ F,0,0,1,0,0,0,1 @ F,0,0,1,0,0,0,1 @ F,0,0,1,0,0,0,1 @ F,0,0,1,0,0,0,1 @ F,0,0,1,0,0,0,1 @ F,0,0,1,0,0,0,1 @ F,0,0,1,0,0,0,1 @ F,0,0,1,0,0,0,1 @ F,0,0,1,0,0,0,1 @ F,0,0,1,0,0,0,1"
       radius="0"
       unit="px"
       method="auto"
       mode="F"
       chamfer_steps="1"
       flexible="false"
       use_knot_distance="true"
       apply_no_radius="true"
       apply_with_radius="true"
       only_selected="false"
       hide_knots="false" />
    <inkscape:path-effect
       effect="fillet_chamfer"
       id="path-effect12"
       nodesatellites_param="F,0,0,1,0,0,0,1 @ F,0,0,1,0,0,0,1 @ F,0,0,1,0,0,0,1 @ F,0,0,1,0,0,0,1 @ F,0,0,1,0,0,0,1 @ F,0,0,1,0,0,0,1 @ F,0,0,1,0,0,0,1 @ F,0,0,1,0,0,0,1 @ F,0,0,1,0,0,0,1 @ F,0,0,1,0,0.73484702,0,1 @ F,0,0,1,0,0,0,1 @ F,0,0,1,0,0,0,1 @ F,0,0,1,0,0,0,1 @ F,0,0,1,0,0,0,1 @ F,0,0,1,0,0,0,1 @ F,0,0,1,0,0,0,1 @ F,0,0,1,0,0,0,1 @ F,0,0,1,0,0,0,1 @ F,0,0,1,0,0,0,1 @ F,0,0,1,0,0,0,1 @ F,0,0,1,0,0,0,1 @ F,0,0,1,0,0,0,1 @ F,0,0,1,0,0,0,1 @ F,0,0,1,0,0,0,1 @ F,0,0,1,0,0,0,1 @ F,0,0,1,0,0,0,1 @ F,0,0,1,0,0,0,1 @ F,0,0,1,0,0,0,1 @ F,0,0,1,0,0,0,1 @ F,0,0,1,0,0,0,1 @ F,0,0,1,0,0,0,1 @ F,0,0,1,0,0,0,1 @ F,0,0,1,0,0,0,1 @ F,0,0,1,0,0,0,1 @ F,0,0,1,0,0,0,1 @ F,0,0,1,0,0,0,1 @ F,0,0,1,0,0,0,1 @ F,0,0,1,0,0,0,1 @ F,0,0,1,0,0,0,1 @ F,0,0,1,0,0,0,1 @ F,0,0,1,0,0,0,1 @ F,0,0,1,0,0,0,1 @ F,0,0,1,0,0,0,1"
       is_visible="true"
       lpeversion="1"
       radius="0"
       unit="px"
       method="auto"
       mode="F"
       chamfer_steps="1"
       flexible="false"
       use_knot_distance="true"
       apply_no_radius="true"
       apply_with_radius="true"
       only_selected="false"
       hide_knots="false" />
    <inkscape:path-effect
       effect="fillet_chamfer"
       id="path-effect11"
       is_visible="true"
       lpeversion="1"
       nodesatellites_param="F,0,0,1,0,0,0,1 @ F,0,0,1,0,0,0,1 @ F,0,0,1,0,0,0,1 @ F,0,0,1,0,0,0,1 @ F,0,0,1,0,0,0,1 @ F,0,0,1,0,0,0,1 @ F,0,0,1,0,0,0,1 @ F,0,0,1,0,0,0,1 @ F,0,0,1,0,1.4513993,0,1 @ F,0,0,1,0,2.7307161,0,1 @ F,0,0,1,0,1.6941817,0,1 @ F,0,0,1,0,0,0,1 @ F,0,0,1,0,0,0,1 @ F,0,0,1,0,0,0,1 @ F,0,0,1,0,0,0,1 @ F,0,0,1,0,0,0,1 @ F,0,0,1,0,0,0,1 @ F,0,0,1,0,0,0,1 @ F,0,0,1,0,0,0,1 @ F,0,0,1,0,0,0,1 | F,0,0,1,0,0,0,1 @ F,0,0,1,0,0,0,1 @ F,0,0,1,0,0,0,1 @ F,0,0,1,0,0,0,1 @ F,0,0,1,0,0,0,1 @ F,0,0,1,0,0,0,1"
       radius="0"
       unit="px"
       method="auto"
       mode="F"
       chamfer_steps="1"
       flexible="false"
       use_knot_distance="true"
       apply_no_radius="true"
       apply_with_radius="true"
       only_selected="false"
       hide_knots="false" />
    <inkscape:path-effect
       effect="fillet_chamfer"
       id="path-effect10"
       is_visible="true"
       lpeversion="1"
       nodesatellites_param="F,0,0,1,0,0,0,1 @ F,0,0,1,0,0,0,1 @ F,0,0,1,0,0,0,1 @ F,0,0,1,0,0,0,1 @ F,0,0,1,0,0,0,1 @ F,0,0,1,0,0,0,1 @ F,0,0,1,0,0,0,1 @ F,0,0,1,0,0,0,1 @ F,0,0,1,0,0,0,1 @ F,0,0,1,0,1.0469177,0,1 @ F,0,0,1,0,0,0,1 @ F,0,0,1,0,0,0,1 @ F,0,0,1,0,0,0,1 @ F,0,0,1,0,0,0,1 @ F,0,0,1,0,0,0,1 @ F,0,0,1,0,0,0,1 @ F,0,0,1,0,0,0,1 @ F,0,0,1,0,0,0,1 @ F,0,0,1,0,0,0,1 @ F,0,0,1,0,0,0,1 | F,0,0,1,0,0,0,1 @ F,0,0,1,0,0,0,1 @ F,0,0,1,0,0,0,1 @ F,0,0,1,0,0,0,1 @ F,0,0,1,0,0,0,1 @ F,0,0,1,0,0,0,1"
       radius="0"
       unit="px"
       method="auto"
       mode="F"
       chamfer_steps="1"
       flexible="false"
       use_knot_distance="true"
       apply_no_radius="true"
       apply_with_radius="true"
       only_selected="false"
       hide_knots="false" />
    <inkscape:path-effect
       effect="fillet_chamfer"
       id="path-effect9"
       is_visible="true"
       lpeversion="1"
       nodesatellites_param="F,0,0,1,0,0,0,1 @ F,0,0,1,0,0,0,1 @ F,0,0,1,0,1.1184657,0,1 @ F,0,0,1,0,0,0,1 @ F,0,0,1,0,0,0,1 @ F,0,0,1,0,0,0,1 @ F,0,0,1,0,0,0,1 @ F,0,0,1,0,0,0,1 @ F,0,0,1,0,0,0,1 @ F,0,0,1,0,0,0,1 @ F,0,0,1,0,0,0,1 @ F,0,0,1,0,0,0,1 @ F,0,0,1,0,0,0,1 @ F,0,0,1,0,0,0,1 @ F,0,0,1,0,0,0,1 @ F,0,0,1,0,0,0,1 @ F,0,0,1,0,0,0,1 @ F,0,0,1,0,0,0,1 @ F,0,0,1,0,0,0,1 @ F,0,0,1,0,0,0,1 @ F,0,0,1,0,0,0,1 @ F,0,0,1,0,0,0,1 @ F,0,0,1,0,0,0,1 @ F,0,0,1,0,0,0,1 @ F,0,0,1,0,0,0,1 @ F,0,0,1,0,0,0,1 @ F,0,0,1,0,0,0,1 @ F,0,0,1,0,0,0,1 @ F,0,0,1,0,0,0,1 @ F,0,0,1,0,0,0,1 @ F,0,0,1,0,0,0,1 @ F,0,0,1,0,0,0,1 @ F,0,0,1,0,0,0,1 @ F,0,0,1,0,0,0,1 @ F,0,0,1,0,0,0,1 @ F,0,0,1,0,0,0,1 @ F,0,0,1,0,0,0,1 @ F,0,0,1,0,0,0,1 @ F,0,0,1,0,0,0,1 @ F,0,0,1,0,0,0,1 @ F,0,0,1,0,0,0,1"
       radius="0"
       unit="px"
       method="auto"
       mode="F"
       chamfer_steps="1"
       flexible="false"
       use_knot_distance="true"
       apply_no_radius="true"
       apply_with_radius="true"
       only_selected="false"
       hide_knots="false" />
    <inkscape:path-effect
       effect="fillet_chamfer"
       id="path-effect8"
       is_visible="true"
       lpeversion="1"
       nodesatellites_param="F,0,0,1,0,0,0,1 @ F,0,0,1,0,0,0,1 @ F,0,0,1,0,0.47679834,0,1 @ F,0,0,1,0,0,0,1 @ F,0,0,1,0,0,0,1 @ F,0,0,1,0,0,0,1 @ F,0,0,1,0,0,0,1 @ F,0,0,1,0,0.6129277,0,1 @ F,0,0,1,0,0,0,1 @ F,0,0,1,0,0,0,1 @ F,0,0,1,0,0,0,1 @ F,0,0,1,0,0,0,1 @ F,0,0,1,0,0,0,1 @ F,0,0,1,0,0,0,1 @ F,0,0,1,0,0,0,1 @ F,0,0,1,0,0,0,1 @ F,0,0,1,0,0,0,1 @ F,0,0,1,0,0,0,1 @ F,0,0,1,0,0,0,1 @ F,0,0,1,0,0,0,1 @ F,0,0,1,0,0,0,1 @ F,0,0,1,0,0,0,1 @ F,0,0,1,0,0,0,1 @ F,0,0,1,0,0,0,1 @ F,0,0,1,0,0,0,1 @ F,0,0,1,0,0,0,1 @ F,0,0,1,0,0,0,1 @ F,0,0,1,0,0,0,1 @ F,0,0,1,0,0,0,1 @ F,0,0,1,0,0,0,1"
       radius="0"
       unit="px"
       method="auto"
       mode="F"
       chamfer_steps="1"
       flexible="false"
       use_knot_distance="true"
       apply_no_radius="true"
       apply_with_radius="true"
       only_selected="false"
       hide_knots="false" />
    <inkscape:path-effect
       effect="fillet_chamfer"
       id="path-effect7"
       is_visible="true"
       lpeversion="1"
       nodesatellites_param="F,0,0,1,0,0,0,1 @ F,0,0,1,0,0,0,1 @ F,0,0,1,0,0,0,1 @ F,0,0,1,0,0,0,1 @ F,0,0,1,0,0,0,1 @ F,0,0,1,0,0,0,1 @ F,0,0,1,0,0,0,1 @ F,0,0,1,0,0,0,1 @ F,0,0,1,0,0,0,1 @ F,0,0,1,0,0.9752972,0,1 @ F,0,0,1,0,3.4196407,0,1 @ F,0,0,1,0,3.2547642,0,1 @ F,0,0,1,0,0.53757505,0,1 @ F,0,0,1,0,0,0,1 @ F,0,0,1,0,0,0,1"
       radius="0"
       unit="px"
       method="auto"
       mode="F"
       chamfer_steps="1"
       flexible="false"
       use_knot_distance="true"
       apply_no_radius="true"
       apply_with_radius="true"
       only_selected="false"
       hide_knots="false" />
    <inkscape:path-effect
       effect="fillet_chamfer"
       id="path-effect26"
       is_visible="true"
       lpeversion="1"
       nodesatellites_param="F,0,0,1,0,0,0,1 @ F,0,0,1,0,0,0,1 @ F,0,0,1,0,0,0,1 @ F,0,0,1,0,0,0,1 @ F,0,0,1,0,0,0,1 @ F,0,0,1,0,0,0,1 @ F,0,0,1,0,0,0,1 @ F,0,0,1,0,0,0,1 @ F,0,0,1,0,0,0,1 @ F,0,0,1,0,0,0,1 @ F,0,0,1,0,0,0,1 @ F,0,0,1,0,0,0,1 @ F,0,0,1,0,0,0,1 @ F,0,0,1,0,0,0,1 @ F,0,0,1,0,0,0,1 @ F,0,0,1,0,0,0,1 @ F,0,0,1,0,0,0,1 @ F,0,0,1,0,0,0,1 @ F,0,0,1,0,0,0,1 @ F,0,0,1,0,0,0,1 @ F,0,0,1,0,0,0,1 @ F,0,0,1,0,0,0,1 @ F,0,0,1,0,0,0,1 @ F,0,0,1,0,0,0,1 @ F,0,0,1,0,0,0,1 @ F,0,0,1,0,0.53394185,0,1 @ F,0,0,1,0,0,0,1 @ F,0,0,1,0,0,0,1 @ F,0,0,1,0,0.65061,0,1 @ F,0,0,1,0,0,0,1 @ F,0,0,1,0,0,0,1 @ F,0,0,1,0,0,0,1"
       radius="0"
       unit="px"
       method="auto"
       mode="F"
       chamfer_steps="1"
       flexible="false"
       use_knot_distance="true"
       apply_no_radius="true"
       apply_with_radius="true"
       only_selected="false"
       hide_knots="false" />
    <inkscape:path-effect
       effect="fillet_chamfer"
       id="path-effect22"
       is_visible="true"
       lpeversion="1"
       nodesatellites_param="F,0,0,1,0,0,0,1 @ F,0,0,1,0,0,0,1 @ F,0,0,1,0,0,0,1 @ F,0,0,1,0,0,0,1 @ F,0,0,1,0,0,0,1 @ F,0,0,1,0,0,0,1 @ F,0,0,1,0,0,0,1 @ F,0,0,1,0,0,0,1 @ F,0,0,1,0,0,0,1 @ F,0,0,1,0,0,0,1 @ F,0,0,1,0,0,0,1 @ F,0,0,1,0,0,0,1 @ F,0,0,1,0,0,0,1 @ F,0,0,1,0,0,0,1 @ F,0,0,1,0,0,0,1 @ F,0,0,1,0,0,0,1 | F,0,0,1,0,0,0,1 @ F,0,0,1,0,0,0,1 @ F,0,0,1,0,0,0,1 @ F,0,0,1,0,0,0,1 @ F,0,0,1,0,0,0,1"
       radius="0"
       unit="px"
       method="auto"
       mode="F"
       chamfer_steps="1"
       flexible="false"
       use_knot_distance="true"
       apply_no_radius="true"
       apply_with_radius="true"
       only_selected="false"
       hide_knots="false" />
    <inkscape:path-effect
       effect="fillet_chamfer"
       id="path-effect21"
       is_visible="true"
       lpeversion="1"
       nodesatellites_param="F,0,0,1,0,0,0,1 @ F,0,0,1,0,0,0,1 @ F,0,0,1,0,0,0,1 @ F,0,0,1,0,0,0,1 @ F,0,0,1,0,0,0,1 @ F,0,0,1,0,0,0,1 @ F,0,0,1,0,0,0,1 @ F,0,0,1,0,0,0,1 @ F,0,0,1,0,0,0,1 @ F,0,0,1,0,0,0,1 @ F,0,0,1,0,0,0,1 @ F,0,0,1,0,0,0,1 @ F,0,0,1,0,0,0,1 @ F,0,0,1,0,0,0,1 @ F,0,0,1,0,0,0,1 @ F,0,0,1,0,0,0,1 | F,0,0,1,0,0,0,1 @ F,0,0,1,0,0,0,1 @ F,0,0,1,0,0,0,1 @ F,0,0,1,0,0,0,1 @ F,0,0,1,0,0,0,1"
       radius="0"
       unit="px"
       method="auto"
       mode="F"
       chamfer_steps="1"
       flexible="false"
       use_knot_distance="true"
       apply_no_radius="true"
       apply_with_radius="true"
       only_selected="false"
       hide_knots="false" />
    <inkscape:path-effect
       effect="fillet_chamfer"
       id="path-effect20"
       is_visible="true"
       lpeversion="1"
       nodesatellites_param="F,0,0,1,0,0,0,1 @ F,0,0,1,0,0,0,1 @ F,0,0,1,0,0,0,1 @ F,0,0,1,0,0,0,1 @ F,0,0,1,0,0,0,1 @ F,0,0,1,0,0,0,1 @ F,0,0,1,0,0,0,1 @ F,0,0,1,0,0,0,1 @ F,0,0,1,0,0,0,1 @ F,0,0,1,0,0,0,1 @ F,0,0,1,0,0,0,1 @ F,0,0,1,0,0,0,1 @ F,0,0,1,0,0,0,1 @ F,0,0,1,0,0,0,1 @ F,0,0,1,0,0,0,1 @ F,0,0,1,0,0,0,1 @ F,0,0,1,0,0,0,1 @ F,0,0,1,0,0,0,1 @ F,0,0,1,0,0,0,1 @ F,0,0,1,0,0,0,1 @ F,0,0,1,0,0,0,1"
       radius="0"
       unit="px"
       method="auto"
       mode="F"
       chamfer_steps="1"
       flexible="false"
       use_knot_distance="true"
       apply_no_radius="true"
       apply_with_radius="true"
       only_selected="false"
       hide_knots="false" />
    <clipPath
       clipPathUnits="userSpaceOnUse"
       id="clipPath50">
      <g
         id="use50" />
    </clipPath>
    <linearGradient
       inkscape:collect="always"
       xlink:href="#linearGradient62"
       id="linearGradient63"
       x1="0"
       y1="22.651367"
       x2="201.10358"
       y2="22.651367"
       gradientUnits="userSpaceOnUse" />
  </defs>
  <g
     id="g48"
     style="display:inline"
     inkscape:label="g48">
    <path
       id="path39"
       style="font-weight:bold;font-family:'EMEN Lowercase';-inkscape-font-specification:'EMEN Lowercase Bold';display:inline;fill:url(#linearGradient63);fill-rule:nonzero"
       inkscape:label="R"
       d="m 183.30469,44.921876 c -0.52081,0.0023 -0.95649,-0.326198 -1.30664,-0.984375 -0.0927,-0.27492 -0.0839,-1.208082 -0.0879,-2.058594 l -0.0586,-13.486328 c -0.004,-0.850512 0.42501,-2.079519 0.90821,-2.779297 0.99557,-1.441832 1.41046,-2.49042 1.11914,-3.5 -0.11263,-0.39032 -0.3131,-0.716106 -0.60547,-0.998047 -0.34191,-0.329703 -0.58569,-0.875888 -0.41992,-1.322265 0.76857,-2.069627 1.97494,-3.777853 3.625,-5.119141 3.11384,-2.531137 6.52087,-3.805906 10.21875,-3.822266 l 2.10742,-0.0078 c 1.51041,-0.0067 2.26748,0.439033 2.27148,1.341797 l 0.0274,6.251953 c 0.004,0.937489 -0.60114,1.406809 -1.81641,1.412109 l -2.0332,0.01172 c -2.81245,0.01243 -4.76742,1.304587 -5.86719,3.878906 -0.17068,0.66048 -0.32237,1.466413 -0.45703,2.421875 l 0.0723,16.511719 c 0.007,1.475681 -0.51107,2.216203 -1.55273,2.220703 z m -25.61328,-0.244141 c -0.4178,-0.01973 -0.77689,-0.145788 -1.09766,-0.396484 -1.28583,-1.003694 -1.10463,-3.315449 -0.74414,-7.941406 l 0.0957,-1.197266 c 0.10293,-1.31351 0.15137,-1.968441 -0.0332,-2.574219 -0.18457,-0.605777 -0.58641,-1.08981 -1.39063,-2.058594 l -0.73046,-0.884765 c -2.82656,-3.408171 -4.23872,-5.116289 -3.7754,-6.785156 0.46333,-1.668867 2.49881,-2.196699 6.56641,-3.25 l 1.05078,-0.273438 c 1.15633,-0.299964 1.73429,-0.448846 2.19531,-0.832031 0.46007,-0.385193 0.75121,-0.959746 1.33594,-2.111328 l 0.5293,-1.046875 c 2.04983,-4.048083 3.0778,-6.0720577 4.64453,-6.1015628 1.57225,-0.02769 2.64835,1.9592468 4.80273,5.9316408 l 0.55469,1.02539 c 0.61179,1.130593 0.91762,1.694222 1.38867,2.0625 0.4701,0.366271 1.05217,0.495952 2.2168,0.753907 l 1.05859,0.234375 v 0.0039 c 4.09371,0.910334 6.13948,1.36431 6.64649,3.015625 0.50701,1.651315 -0.86044,3.406219 -3.59961,6.916016 l -0.70898,0.908203 c -0.77896,0.99796 -1.16661,1.499871 -1.33594,2.109375 -0.17017,0.612613 -0.10177,1.264729 0.0351,2.574218 l 0.1211,1.19336 c 0.48032,4.609798 0.72061,6.914006 -0.53711,7.960937 -1.25856,1.050035 -3.18028,0.147527 -7.02539,-1.654297 l -0.99414,-0.466796 c -1.09294,-0.511966 -1.63652,-0.767893 -2.21289,-0.757813 -0.57542,0.01209 -1.11489,0.285226 -2.19336,0.835938 l -0.98242,0.503906 c -2.84726,1.453596 -4.62748,2.361926 -5.88086,2.302734 z m 8.97265,-4.193359 c 0.60173,-8.207048 4.41059,-6.452183 5.22852,-12.083985 2.13853,2.07403 2.74622,4.730071 -0.38086,8.332032 6.99186,-4.802804 4.33478,-10.544204 -0.94727,-15.138672 -1.3703,-1.754047 -3.34839,-3.112465 -4.39453,-7.25 -0.88834,4.209361 -2.81299,5.71123 -4.11523,7.564453 -5.10113,4.979935 -7.53844,10.912169 -0.375,15.189453 -3.25821,-3.364325 -2.7514,-6.059514 -0.69532,-8.289062 1.03012,5.561055 4.76922,3.525775 5.67969,11.675781 z m -0.0781,-4.074219 c -0.32207,-2.882528 -1.24053,-3.612985 -2.0586,-4.435547 -1.13974,-0.712533 -1.92145,-2.066717 -1.95117,-3.640625 -0.0322,-1.703402 0.82421,-3.212347 2.0918,-3.960937 0.61964,-0.784834 1.26519,-1.739977 1.625,-3.445313 0.42916,1.697092 1.12383,2.602915 1.7793,3.345703 1.26793,0.66517 2.15963,2.094135 2.1914,3.775391 0.0291,1.541886 -0.67233,2.928216 -1.74609,3.732422 -0.79597,0.902089 -1.7149,1.673609 -1.93164,4.628906 z m -0.10547,-4.945312 c 1.61552,-0.05998 2.88778,-1.567044 2.85351,-3.38086 -0.0343,-1.813927 -1.36104,-3.224049 -2.97656,-3.164062 -1.61548,0.05998 -2.88777,1.566932 -2.85351,3.380859 0.0343,1.813763 1.36118,3.224041 2.97656,3.164063 z m -13.78127,13.613281 c -5.64233,0 -9.30622,-0.382596 -10.99024,-1.146485 -1.66665,-0.781248 -3.13303,-1.979173 -4.40039,-3.59375 -0.0215,-0.0278 -0.0413,-0.05433 -0.0625,-0.08203 0.0188,-0.0239 0.0401,-0.04631 0.0586,-0.07031 1.22667,-1.594658 1.83984,-3.414553 1.83984,-5.458985 0,-2.412429 -0.63479,-4.293253 -1.90234,-5.642578 -0.87703,-0.933608 -1.86295,-1.657217 -2.95508,-2.179687 v -5.71875 c 0,-0.338511 0.31212,-0.477619 0.5957,-0.644532 0.16515,-0.0972 0.27655,-0.279934 0.38672,-0.505859 l 0.26953,-0.574219 2.06836,-4.417968 c 0.41643,-0.900987 0.16472,-1.164197 -1.19922,-1.748047 -0.51944,-0.222353 -1.07651,-0.425669 -1.66601,-0.613282 -0.25092,-0.07986 -0.45508,-0.35386 -0.45508,-0.617187 V 2.2656258 c 0,-1.51040499 0.4527,-2.26562500654297 1.35547,-2.26562500654297 h 6.25 c 0.9375,0 1.40625,0.60698905654297 1.40625,1.82226560654297 V 11.06836 h 5.71289 c 2.35313,0 3.5293,0.468753 3.5293,1.40625 v 6.25 c 0,0.902767 -1.46211,1.353516 -4.38672,1.353516 h -4.85547 v 11.27539 c 0.0521,1.371516 0.34655,2.423177 0.88476,3.152344 0.53819,0.711809 1.31143,1.144532 2.31836,1.300781 1.00694,0.138889 3.37676,0.261075 7.10938,0.365235 0.69445,0.12154 1.04101,0.728529 1.04101,1.822265 v 5.339844 c 0,1.163198 -0.65104,1.744141 -1.95312,1.744141 z m -29.99219,0.224609 c -2.17681,0 -4.25792,-0.155011 -6.33398,-0.544922 -0.005,-0.03001 -0.0145,-0.05897 -0.0274,-0.08594 l -0.27734,-0.402344 -0.99609,-1.449219 -0.0742,-0.09961 -3.88477,-5.59375 c 0.051,-0.270696 0.1332,-0.726836 0.1582,-0.839844 0.18061,-0.816463 0.65083,-1.127942 1.3711,-0.802734 1.33802,0.604123 2.68262,1.246721 4.30078,1.722656 2.08533,0.572438 4.12928,0.859375 6.13281,0.859375 4.04799,0 6.07227,-1.002305 6.07227,-3.005859 0,-0.940437 -0.55225,-1.61454 -1.65625,-2.023438 -1.10399,-0.408879 -2.80203,-0.756749 -5.0918,-1.042969 -2.69866,-0.408889 -4.92538,-0.878598 -6.68359,-1.410156 -1.75822,-0.531549 -3.29314,-1.472929 -4.60157,-2.822265 -1.26754,-1.349327 -1.90039,-3.271412 -1.90039,-5.765625 0,-0.350076 0.0231,-0.691118 0.0566,-1.027344 l 4.4961,-5.19336 0.83594,-0.964843 c 0.12998,-0.18774 0.22239,-0.350834 0.27539,-0.492188 0.17546,-0.467927 -0.1429,-0.951942 0.41406,-1.21875 0.31299,-0.149938 0.6369,-0.293109 0.97461,-0.425781 2.33064,-0.899548 5.0703,-1.349609 8.21875,-1.349609 2.33065,0 4.64187,0.265327 6.93164,0.796875 1.56114,0.328657 2.93811,0.750313 4.13281,1.261718 1.36395,0.583851 1.61565,0.84706 1.19922,1.748047 l -2.06836,4.417969 -0.26953,0.574219 c -0.2512,0.515115 -0.50522,0.810193 -1.38477,0.382812 -0.29285,-0.142295 -0.58543,-0.278535 -0.88281,-0.40625 -2.38594,-1.024699 -4.93951,-1.537109 -7.6582,-1.537109 -2.04445,0 -3.57739,0.284984 -4.59961,0.857422 -1.02222,0.572439 -1.5332,1.309437 -1.5332,2.208984 0,1.022217 0.55225,1.737585 1.65625,2.146484 1.10399,0.40888 2.86101,0.798017 5.27343,1.166016 2.69866,0.449778 4.90769,0.939154 6.625,1.470703 1.71733,0.490668 3.20902,1.41044 4.47657,2.759766 1.26755,1.349326 1.90234,3.230146 1.90234,5.642578 0,2.044434 -0.61318,3.864328 -1.83984,5.458984 -1.22666,1.594665 -3.0269,2.842631 -5.39844,3.742188 -2.33067,0.858668 -5.11159,1.287109 -8.3418,1.287109 z M 86.117187,45.16797 c -0.150792,0 -0.242768,-0.0016 -0.261718,-0.002 -0.02847,-5e-4 -0.05195,-0.0087 -0.07813,-0.01367 0.112143,-0.0121 0.220129,-0.03175 0.318359,-0.06445 0.659714,-0.347219 0.988281,-0.781905 0.988281,-1.302734 v -6.144531 c 0,-0.512162 -0.177851,-0.898814 -0.535156,-1.158203 -0.523353,-0.379933 -1.109445,-0.900897 -1.109375,-1.554688 4.59e-4,-4.335697 -0.0026,-7.607526 -0.002,-14.683594 h 0.0078 c 1.093714,-0.104169 1.640625,-0.598957 1.640625,-1.484375 v -6.302734 c -0.242517,-0.713274 -0.638261,-1.132896 -1.185546,-1.259766 -0.09878,-0.0229 -0.158303,-0.04102 -0.310547,-0.04102 -0.12243,0 -0.150391,-0.0783 -0.150391,-0.150391 0,-0.174957 7e-6,-0.357814 0,-0.548828 -1.11e-4,-3.0441153 0.0017,-7.9208123 0,-8.0507812 -0.0091,-0.6743223 0.463587,-0.7714844 0.638672,-0.7714844 0,0 5.971439,-0.0101 6.554687,0 0.583249,0.010101 0.868047,0.1751715 0.873047,0.6464844 0.005,0.4713129 0,23.9941402 0,23.9941402 L 93.966797,25.779298 104.5332,14.419923 c 0,0 0.28198,-0.294946 0.41797,-0.449219 0.16249,-0.184352 0.49455,-0.367188 0.8125,-0.367188 h 0.64649 5.93359 0.97461 c 0.95192,0.0048 1.12387,0.373635 0.54687,1.207032 l -0.83593,0.964843 -9.70117,11.203125 10.93164,15.742188 0.0742,0.09961 0.9961,1.449219 0.27734,0.402344 c 0.13408,0.211152 -0.005,0.50477 -0.23437,0.49414 h -0.76953 -7.96094 c -0.29753,-1.59e-4 -0.57902,-0.153109 -0.76563,-0.416015 L 97.380859,32.78711 93.503906,37.128907 v 7.621094 c 0,0.266139 -0.109987,0.412015 -0.404297,0.416015 -0.263209,0.004 -5.706438,0.006 -6.982422,0.002 z M 75.378906,45.07813 c -5.12151,0 -8.941629,-1.562506 -11.458984,-4.6875 -2.517355,-3.124984 -3.775391,-7.0393 -3.775391,-11.744141 0,-3.020824 0.182296,-5.208333 0.546875,-6.5625 0.36458,-1.354157 0.963547,-2.718316 1.796875,-4.089844 0.538189,-0.989578 1.692064,-2.247613 3.462891,-3.77539 1.284717,-0.902768 2.508687,-1.579861 3.671875,-2.03125 1.822916,-0.746529 4.202714,-1.119141 7.136719,-1.119141 h 8.019531 c 0.746518,0 1.26736,0.432733 1.5625,1.300781 v 6.302735 c 0,0.885418 -0.546907,1.380205 -1.640625,1.484375 h -8.175781 c -5.03471,0 -7.552735,2.65627 -7.552735,7.96875 0,5.243039 2.612221,7.865234 7.837891,7.865234 h 7.318359 c 1.475667,0 2.212891,0.520842 2.212891,1.5625 v 6.144531 c 0,0.520829 -0.328563,0.955515 -0.988281,1.302735 -0.15625,0.0521 -0.330535,0.07813 -0.521485,0.07813 z m -26.36914,0.216797 c -1.245013,0.01836 -2.461883,-0.07738 -3.648438,-0.28711 -3.175831,-0.598612 -5.879317,-1.915846 -8.111328,-3.951172 -2.232,-2.035328 -3.814862,-4.626806 -4.75,-7.77539 -0.923452,-3.109237 -1.026433,-6.121184 -0.306641,-9.033203 0.333663,-1.32267 0.814602,-2.557188 1.427735,-3.714844 0.58089,-0.150403 1.210053,-0.226563 1.890625,-0.226563 h 2.03125 c 1.215276,0 1.822265,-0.468752 1.822265,-1.40625 v -4.601562 c 1.568294,-1.030777 3.325972,-1.839779 5.279297,-2.419922 1.894074,-0.562546 3.756664,-0.840631 5.585938,-0.832031 1.097566,0.0052 2.183338,0.113334 3.257812,0.324219 2.853579,0.52302 5.36983,1.789215 7.550781,3.796875 0.570268,0.505195 1.097288,1.057106 1.585938,1.652343 -0.448175,0.514846 -0.793796,0.98369 -1.021484,1.402344 -0.833328,1.371523 -1.432297,2.73569 -1.796875,4.089844 -0.25834,0.959557 -0.424721,2.346179 -0.5,4.142578 l -15.626954,8.130859 c 1.136647,1.375586 2.530987,2.246944 4.181641,2.613282 1.690001,0.354641 3.576167,0.223046 5.662109,-0.396485 1.009798,-0.299913 1.91934,-0.666523 2.730469,-1.099609 0.824538,-0.440244 1.429659,-0.908181 1.429688,-0.908203 1.184591,-0.926946 2.101218,-0.722944 2.576172,0.707031 0.455594,1.371688 1.067595,2.644747 1.835937,3.820312 0.438399,0.670752 0.34616,1.592247 -0.316406,2.042969 -1.759871,1.197184 -3.858418,2.161329 -6.300781,2.886719 -2.238457,0.664827 -4.393729,1.012364 -6.46875,1.042969 z M 41.25,29.654298 55.824219,22.048829 c -0.923884,-1.524427 -2.199696,-2.579517 -3.830078,-3.166016 -0.815192,-0.29325 -1.6631,-0.442918 -2.542969,-0.449218 -0.879867,-0.0063 -1.791746,0.13157 -2.736328,0.412109 -2.322086,0.689666 -3.989916,1.997702 -5.001953,3.925781 -1.012023,1.928086 -1.167334,4.222484 -0.462891,6.882813 z M 20.794922,44.828126 c -0.520829,0 -0.955515,-0.330516 -1.302735,-0.990235 -0.052,-0.156249 -0.07813,-0.328561 -0.07813,-0.519531 V 26.052735 c 0,-5.12151 1.562507,-8.941629 4.6875,-11.458984 3.124994,-2.517355 6.536473,-3.775391 10.234375,-3.775391 h 2.109375 c 1.510417,0 2.265625,0.450748 2.265625,1.353516 v 6.25 c 0,0.937498 -0.606988,1.40625 -1.822265,1.40625 h -2.03125 c -2.812485,0 -4.773648,1.284081 -5.884766,3.853515 -0.173609,0.659719 -0.32986,1.467017 -0.46875,2.421875 v 16.511719 c 0,1.475697 -0.520832,2.212891 -1.5625,2.212891 z m -3.6875,0.25 c -4.557128,0 -8.0015204,-0.382596 -9.685547,-1.146485 C 5.7552183,43.150393 4.2888378,41.952468 3.0214844,40.337891 1.7714969,38.723315 0.96419865,37.238914 0.59960937,35.884766 0.2350301,34.513239 0.03469993,33.351353 0,32.396485 V 2.2656258 C 0,0.75521881 0.45073743,7.9345703e-7 1.3535156,7.9345703e-7 h 6.25 C 8.5410038,7.9345704e-7 9.0097656,0.60698885 9.0097656,1.8222664 V 11.06836 H 16.875 c 0.859686,0 1.291016,0.468752 1.291016,1.40625 v 6.25 c 0,0.902768 -0.535039,1.353516 -1.603516,1.353516 H 9.0097656 v 11.27539 c 0.05206,1.371518 0.3485199,2.423176 0.8867188,3.152344 0.5381986,0.711809 1.3094586,1.144532 2.3164066,1.300781 1.006948,0.13889 2.616145,0.261075 5.630859,0.365235 0.560874,0.12154 0.841797,0.728528 0.841797,1.822265 v 5.339844 c 0,1.163198 -0.526481,1.744141 -1.578125,1.744141 z" />
  </g>
</svg>
